<?xml version="1.0" encoding="UTF-8" standalone="no"?>
<!-- Created with Inkscape (http://www.inkscape.org/) -->

<svg
   xmlns:dc="http://purl.org/dc/elements/1.1/"
   xmlns:cc="http://creativecommons.org/ns#"
   xmlns:rdf="http://www.w3.org/1999/02/22-rdf-syntax-ns#"
   xmlns:svg="http://www.w3.org/2000/svg"
   xmlns="http://www.w3.org/2000/svg"
   xmlns:sodipodi="http://sodipodi.sourceforge.net/DTD/sodipodi-0.dtd"
   xmlns:inkscape="http://www.inkscape.org/namespaces/inkscape"
   width="152.08501"
   height="35.320999"
   viewBox="0 0 40.239157 9.3453477"
   version="1.1"
   id="svg2443"
   inkscape:version="0.92.4 (5da689c313, 2019-01-14)"
   sodipodi:docname="logo-tudobonus-branco.svg">
  <defs
     id="defs2437" />
  <sodipodi:namedview
     id="base"
     pagecolor="#ffffff"
     bordercolor="#666666"
     borderopacity="1.0"
     inkscape:pageopacity="0.0"
     inkscape:pageshadow="2"
     inkscape:zoom="5.6361646"
     inkscape:cx="119.05105"
     inkscape:cy="22.672172"
     inkscape:document-units="px"
     inkscape:current-layer="g2359"
     showgrid="false"
     units="px"
     inkscape:window-width="1920"
     inkscape:window-height="1016"
     inkscape:window-x="0"
     inkscape:window-y="27"
     inkscape:window-maximized="1" />
  <metadata
     id="metadata2440">
    <rdf:RDF>
      <cc:Work
         rdf:about="">
        <dc:format>image/svg+xml</dc:format>
        <dc:type
           rdf:resource="http://purl.org/dc/dcmitype/StillImage" />
        <dc:title></dc:title>
      </cc:Work>
    </rdf:RDF>
  </metadata>
  <g
     inkscape:label="Camada 1"
     inkscape:groupmode="layer"
     id="layer1"
     transform="translate(0,-287.65462)">
    <g
       aria-label="Tudo"
       transform="scale(0.99530426,1.0047179)"
       style="font-style:normal;font-variant:normal;font-weight:bold;font-stretch:normal;font-size:9.57603359px;line-height:1.25;font-family:'Fredoka One';-inkscape-font-specification:'Fredoka One, Bold';font-variant-ligatures:normal;font-variant-caps:normal;font-variant-numeric:normal;font-feature-settings:normal;text-align:start;letter-spacing:0px;word-spacing:0px;writing-mode:lr-tb;text-anchor:start;fill:#ffffff;fill-opacity:1;stroke:none;stroke-width:0.23940083"
       id="text2341" />
    <g
       style="fill:#ffffff"
       inkscape:label="Camada 1"
       id="g2359"
       transform="matrix(0.22169132,0,0,0.22169132,9.9445996,111.5043)">
      <g
         transform="matrix(0.63603411,0,0,0.63603411,-44.857639,647.82749)"
         style="fill:#ffffff"
         id="g3053">
        <g
           id="text2345"
           style="font-style:normal;font-variant:normal;font-weight:bold;font-stretch:normal;font-size:9.57603359px;line-height:1.25;font-family:'Fredoka One';-inkscape-font-specification:'Fredoka One, Bold';font-variant-ligatures:normal;font-variant-caps:normal;font-variant-numeric:normal;font-feature-settings:normal;text-align:start;letter-spacing:0px;word-spacing:0px;writing-mode:lr-tb;text-anchor:start;fill:#ffffff;fill-opacity:1;stroke:none;stroke-width:0.23940083"
           transform="matrix(4.4895951,0,0,4.5320579,-44.857866,-502.97098)"
           aria-label="Bônus">
          <path
             d="m 69.533627,174.79207 q -0.181944,-0.11491 -0.181944,-0.36389 0,-0.24898 0.363889,-0.75651 0.105336,-0.16279 0.335161,-0.16279 0.239401,0 0.641594,0.2394 0.402194,0.22983 0.727779,0.22983 0.584138,0 0.584138,-0.22983 0,-0.18194 -0.641594,-0.26813 -0.60329,-0.0862 -1.197005,-0.45007 -0.277704,-0.17237 -0.459649,-0.53626 -0.181945,-0.37347 -0.181945,-0.881 0,-1.51301 2.078,-1.51301 0.679898,0 1.3981,0.32559 0.335162,0.15321 0.335162,0.38304 0,0.22982 -0.210673,0.56498 -0.210673,0.33517 -0.430922,0.33517 -0.114912,0 -0.430921,-0.14365 -0.306433,-0.14364 -0.670323,-0.14364 -0.564985,0 -0.564985,0.21068 0,0.28728 0.65117,0.37346 0.632018,0.067 1.225732,0.36389 0.277705,0.13407 0.45965,0.46923 0.19152,0.32558 0.19152,0.82354 0,0.49795 -0.19152,0.85226 -0.181945,0.34474 -0.517106,0.51711 -0.612866,0.29686 -1.541742,0.29686 -0.919299,0 -1.771566,-0.53626 z m -3.595501,0.43092 q -0.967179,0 -1.608774,-0.72778 -0.632018,-0.73735 -0.632018,-1.79072 v -1.6758 q 0,-0.22983 0.0096,-0.33516 0.01915,-0.10534 0.08619,-0.24898 0.134064,-0.25855 0.74693,-0.25855 0.670323,0 0.785235,0.36389 0.05746,0.15321 0.05746,0.48837 v 1.67581 q 0,0.39262 0.220249,0.61287 0.229825,0.22024 0.60329,0.22024 0.383041,0 0.612866,-0.22982 0.239401,-0.22983 0.239401,-0.60329 v -1.69496 q 0,-0.22025 0.0096,-0.32558 0.01915,-0.11492 0.09576,-0.25856 0.124489,-0.24897 0.737355,-0.24897 0.60329,0 0.737355,0.25855 0.06703,0.14364 0.07661,0.25855 0.01915,0.10534 0.01915,0.32559 v 3.38991 q 0,0.21068 -0.01915,0.32559 -0.0096,0.10533 -0.08618,0.2394 -0.143641,0.24898 -0.737355,0.24898 -0.584138,0 -0.718203,-0.22983 -0.09576,-0.16279 -0.09576,-0.39262 -0.0383,0.067 -0.172368,0.19152 -0.134065,0.12449 -0.258553,0.21068 -0.325586,0.21067 -0.708627,0.21067 z m -5.233003,-5.02742 q 0.957604,0 1.589622,0.73736 0.641594,0.72778 0.641594,1.78114 v 1.68538 q 0,0.22025 -0.01915,0.33516 -0.0096,0.10534 -0.07661,0.2394 -0.134065,0.25856 -0.746931,0.25856 -0.679898,0 -0.785235,-0.35432 -0.05746,-0.16279 -0.05746,-0.48838 v -1.68538 q 0,-0.39261 -0.229825,-0.61286 -0.220248,-0.22025 -0.60329,-0.22025 -0.373465,0 -0.612866,0.22982 -0.229825,0.22983 -0.229825,0.60329 v 1.69496 q 0,0.22025 -0.01915,0.33516 -0.0096,0.10534 -0.08618,0.2394 -0.124489,0.25856 -0.737355,0.25856 -0.60329,0 -0.737354,-0.25856 -0.06703,-0.14364 -0.08619,-0.24897 -0.0096,-0.11492 -0.0096,-0.33517 v -3.38991 q 0,-0.21067 0.0096,-0.31601 0.01915,-0.11491 0.09576,-0.24898 0.134064,-0.2394 0.737354,-0.2394 0.584138,0 0.718203,0.22025 0.09576,0.16279 0.09576,0.39262 0.0383,-0.067 0.172369,-0.19152 0.134064,-0.12449 0.258553,-0.2011 0.325585,-0.22025 0.718202,-0.22025 z m -8.691298,2.52807 q 0,-1.14912 0.804387,-1.89605 0.804387,-0.74693 1.838598,-0.74693 1.034212,0 1.829023,0.74693 0.79481,0.73735 0.79481,1.88648 0,0.79481 -0.411769,1.41725 -0.411769,0.61287 -1.005484,0.90973 -0.584138,0.28728 -1.216156,0.28728 -0.632018,0 -1.225732,-0.30644 -0.593714,-0.31601 -1.005484,-0.9193 -0.402193,-0.61286 -0.402193,-1.37895 z m 2.001391,0.68948 q 0.306433,0.22982 0.622442,0.22982 0.316009,0 0.632018,-0.2394 0.316009,-0.2394 0.316009,-0.70862 0,-0.46923 -0.296857,-0.69905 -0.296857,-0.22983 -0.641594,-0.22983 -0.344737,0 -0.641594,0.2394 -0.296857,0.2394 -0.296857,0.70863 0,0.45965 0.306433,0.69905 z m 0.670322,-5.58283 0.220249,0.0479 q 0.890571,0.28728 1.283189,0.42135 0.402193,0.13406 0.402193,0.46922 0,0.18195 -0.105336,0.38304 -0.248977,0.50753 -0.574562,0.50753 -0.08619,0 -0.306433,-0.067 l -0.9193,-0.40219 -0.890571,0.38304 q -0.0096,0 -0.0096,0 -0.191521,0.067 -0.316009,0.067 -0.363889,0 -0.593714,-0.48838 -0.114912,-0.24897 -0.114912,-0.40219 0,-0.30643 0.363889,-0.43092 l 1.331068,-0.4405 z m -3.720139,3.64847 q 0.564986,0.67032 0.564986,1.50344 -0.01915,0.9576 -0.660747,1.60877 -0.632018,0.6416 -1.541741,0.6416 H 46.8094 q -0.670322,0 -0.785235,-0.36389 -0.05746,-0.1628 -0.05746,-0.49796 v -5.3147 q 0,-0.22982 0.0096,-0.33516 0.01915,-0.10533 0.09576,-0.24897 0.134065,-0.25856 0.746931,-0.25856 h 2.413161 q 0.880995,0 1.474709,0.61287 0.622442,0.62244 0.622442,1.49386 0,0.63202 -0.363889,1.1587 z m -1.129972,1.40768 q 0,-0.22983 -0.05746,-0.36389 -0.04788,-0.13407 -0.172368,-0.19152 -0.191521,-0.0766 -0.536258,-0.0766 -0.344737,0 -0.517106,-0.13407 -0.172368,-0.13406 -0.172368,-0.54583 0,-0.42134 0.172368,-0.55541 0.181945,-0.13406 0.593714,-0.13406 0.383042,0 0.45965,-0.2011 0.02873,-0.10534 0.02873,-0.34474 0,-0.2394 -0.162793,-0.33516 -0.153216,-0.0958 -0.469225,-0.0958 h -1.340645 v 3.62932 h 1.57047 q 0.60329,0 0.60329,-0.65117 z m -8.4353,-0.1628 q 0,-1.14912 0.804387,-1.89605 0.804387,-0.74693 1.838599,-0.74693 1.034211,0 1.829022,0.74693 0.794811,0.73735 0.794811,1.88648 0,0.79481 -0.41177,1.41725 -0.411769,0.61287 -1.005483,0.90973 -0.584138,0.28728 -1.216156,0.28728 -0.632019,0 -1.225733,-0.30644 -0.593714,-0.31601 -1.005483,-0.9193 -0.402194,-0.61286 -0.402194,-1.37895 z m 2.001391,0.68948 q 0.306433,0.22982 0.622443,0.22982 0.316009,0 0.632018,-0.2394 0.316009,-0.2394 0.316009,-0.70862 0,-0.46923 -0.296857,-0.69905 -0.296857,-0.22983 -0.641594,-0.22983 -0.344738,0 -0.641595,0.2394 -0.296857,0.2394 -0.296857,0.70863 0,0.45965 0.306433,0.69905 z m -4.200585,-5.3147 q 0.07661,-0.14364 0.258553,-0.2011 0.181944,-0.0575 0.478801,-0.0575 0.306433,0 0.488378,0.0575 0.181945,0.0575 0.248977,0.2011 0.07661,0.14364 0.08618,0.25855 0.01915,0.10534 0.01915,0.32559 v 5.71689 q 0,0.22025 -0.01915,0.33516 -0.0096,0.10534 -0.08618,0.2394 -0.143641,0.25856 -0.813963,0.25856 -0.660746,0 -0.737355,-0.46923 -0.402193,0.45965 -1.120395,0.45965 -0.861844,0 -1.57047,-0.74693 -0.708626,-0.75651 -0.708626,-1.75242 0,-1.00548 0.708626,-1.76199 0.718203,-0.7565 1.57047,-0.7565 0.708626,0 1.101243,0.4788 v -2.01097 q 0,-0.22025 0.0096,-0.32558 0.01915,-0.11491 0.08619,-0.24898 z m -1.551318,5.19979 q 0.248977,0.25855 0.60329,0.25855 0.354314,0 0.584138,-0.25855 0.239401,-0.25856 0.239401,-0.56499 0,-0.31601 -0.229825,-0.58414 -0.220248,-0.26813 -0.60329,-0.26813 -0.383041,0 -0.612866,0.26813 -0.229825,0.25856 -0.229825,0.57456 0,0.31601 0.248977,0.57457 z m -5.38622,1.92478 q -0.967179,0 -1.608773,-0.72778 -0.632019,-0.73735 -0.632019,-1.79072 v -1.6758 q 0,-0.22983 0.0096,-0.33516 0.01915,-0.10534 0.08618,-0.24898 0.134064,-0.25855 0.74693,-0.25855 0.670323,0 0.785235,0.36389 0.05746,0.15321 0.05746,0.48837 v 1.67581 q 0,0.39262 0.220249,0.61287 0.229825,0.22024 0.60329,0.22024 0.383042,0 0.612866,-0.22982 0.239401,-0.22983 0.239401,-0.60329 v -1.69496 q 0,-0.22025 0.0096,-0.32558 0.01915,-0.11492 0.09576,-0.25856 0.124488,-0.24897 0.737354,-0.24897 0.60329,0 0.737355,0.25855 0.06703,0.14364 0.07661,0.25855 0.01915,0.10534 0.01915,0.32559 v 3.38991 q 0,0.21068 -0.01915,0.32559 -0.0096,0.10533 -0.08618,0.2394 -0.143641,0.24898 -0.737355,0.24898 -0.584138,0 -0.718202,-0.22983 -0.09576,-0.16279 -0.09576,-0.39262 -0.0383,0.067 -0.172368,0.19152 -0.134065,0.12449 -0.258553,0.21068 -0.325585,0.21067 -0.708627,0.21067 z m -7.635241,-7.00966 h 5.324275 q 0.306433,0 0.450074,0.0766 0.14364,0.067 0.19152,0.22025 0.04788,0.15322 0.04788,0.40219 0,0.24898 -0.04788,0.4022 -0.04788,0.14364 -0.162792,0.20109 -0.172369,0.0862 -0.488378,0.0862 h -1.829022 v 4.81674 q 0,0.22025 -0.01915,0.32559 -0.0096,0.10533 -0.08618,0.24897 -0.06703,0.13407 -0.248977,0.19153 -0.181944,0.0575 -0.478801,0.0575 -0.296857,0 -0.478802,-0.0575 -0.172369,-0.0575 -0.248977,-0.19153 -0.06703,-0.14364 -0.08618,-0.24897 -0.0096,-0.11491 -0.0096,-0.33516 v -4.80717 h -1.838599 q -0.306433,0 -0.450073,-0.067 -0.143641,-0.0766 -0.191521,-0.22983 -0.04788,-0.15322 -0.04788,-0.40219 0,-0.24898 0.04788,-0.39262 0.04788,-0.15322 0.162793,-0.21067 0.172368,-0.0862 0.488377,-0.0862 z"
             style="font-style:normal;font-variant:normal;font-weight:bold;font-stretch:normal;font-size:9.57603359px;font-family:'Fredoka One';-inkscape-font-specification:'Fredoka One, Bold';font-variant-ligatures:normal;font-variant-caps:normal;font-variant-numeric:normal;font-feature-settings:normal;text-align:start;writing-mode:lr-tb;text-anchor:start;fill:#ffffff;stroke-width:0.23940083"
             id="path3037"
             inkscape:connector-curvature="0" />
        </g>
        <path
           inkscape:connector-curvature="0"
           d="m 39.247182,273.95738 c -0.524497,-0.20797 -1.257213,-0.31356 -2.201109,-0.31356 -0.94365,0 -1.650462,-0.18232 -2.12093,-0.55016 -0.473429,-0.36808 -0.71002,-1.11979 -0.71002,-2.2618 0,-1.13904 0.243005,-1.89075 0.729263,-2.25859 0.48305,-0.36808 1.289284,-0.5504 2.415496,-0.5504 1.04924,0 1.679327,-0.27508 1.8873,-0.82523 0.07993,-0.28791 0.118419,-0.76158 0.118419,-1.41732 0,-0.65279 -0.217348,-1.11339 -0.64933,-1.37564 -0.431982,-0.26224 -1.081312,-0.39349 -1.945029,-0.39349 h -5.502773 v 14.89856 h 6.446423 c 1.650709,0 2.47594,-0.88937 2.47594,-2.67133 0,-0.63033 -0.07352,-1.12621 -0.214141,-1.49405 -0.147283,-0.36784 -0.387081,-0.63033 -0.729509,-0.78699"
           style="fill:#ffffff;fill-opacity:1;fill-rule:nonzero;stroke:none;stroke-width:0.25581291"
           id="path2349" />
        <path
           inkscape:connector-curvature="0"
           d="m 44.455492,283.21573 c -1.74347,1.76913 -3.858232,2.65209 -6.347248,2.65209 H 27.768556 c -1.833024,0 -2.907921,-0.49588 -3.224692,-1.4906 -0.156658,-0.44802 -0.233383,-1.12942 -0.233383,-2.04445 v -19.57882 h -3.968017 v 19.77396 c 0,0.60468 -0.019,1.04924 -0.06069,1.33715 -0.03849,0.28791 -0.156905,0.62071 -0.35205,1.00138 -0.198351,0.38067 -0.543739,0.64958 -1.043072,0.80623 -0.495632,0.15691 -1.151623,0.23684 -1.964272,0.23684 -0.812402,0 -1.461732,-0.0799 -1.944782,-0.23684 -0.486257,-0.15665 -0.825478,-0.42556 -1.023829,-0.80623 -0.195144,-0.38067 -0.313563,-0.71989 -0.352049,-1.02038 -0.04145,-0.30073 -0.06069,-0.75516 -0.06069,-1.35639 V 262.75395 H 5.9942998 c -0.8383064,0 -1.4558111,-0.0992 -1.8493069,-0.29432 -0.3932491,-0.19515 -0.6557441,-0.5055 -0.7835377,-0.92466 -0.1344547,-0.41915 -0.1983515,-0.9693 -0.1983515,-1.6507 0,-0.68141 0.063897,-1.22539 0.1983515,-1.63172 0.1277936,-0.40607 0.3515558,-0.68757 0.6653656,-0.84447 0.4734285,-0.23659 1.1420013,-0.35501 2.0059651,-0.35501 h 21.7745031 0.08215 9.825553 c 2.412043,0 4.427383,0.84127 6.052681,2.51763 1.705231,1.70203 2.556119,3.74623 2.556119,6.13286 0,1.72768 -0.499086,3.31425 -1.493804,4.75723 1.544872,1.83303 2.319282,3.89006 2.319282,6.1711 -0.05132,2.62002 -0.950311,4.81471 -2.693781,6.58384 m -18.8577,-48.25615 c 5.222515,-0.45296 9.299576,3.14846 9.790027,8.98058 H 17.703205 c -0.40213,-4.62055 3.114661,-8.56587 7.894587,-8.98058 m 27.27999,51.18109 c 0.0027,0 0.0054,5e-4 0.0081,5e-4 0.03256,-9.59365 0.06834,-19.1873 -0.05946,-28.77873 -0.06982,-5.23535 -2.965405,-9.09827 -7.470006,-11.61837 -1.729408,-0.96782 -3.711936,-1.4827 -5.56371,-2.19814 -1.472094,-7.71376 -6.192563,-12.45174 -12.732241,-12.80182 -6.922319,-0.37104 -11.640815,3.95643 -14.297343,13.35715 H 0.16809493 c -0.0658705,1.4526 -0.16257914,2.59929 -0.16331926,3.74598 -0.00764788,11.58161 -0.00641435,23.16321 0.00592094,34.74482 0.0088814,8.28808 6.06452269,14.37234 14.40762039,14.39454 11.796239,0.0313 23.592725,2.5e-4 35.388718,-0.0195 0.928847,-0.002 1.857448,-0.12384 2.760391,-0.18823 0.05502,-0.20625 0.111265,-0.37697 0.159372,-0.52672"
           style="fill:#ffffff;fill-opacity:1;fill-rule:nonzero;stroke:none;stroke-width:0.25581291"
           id="path2353"
           sodipodi:nodetypes="csscsccscccscccscsccsccsccscsccccccccccccccccccccc" />
      </g>
    </g>
  </g>
</svg>
